<?xml version="1.0" encoding="utf-8"?>
<!-- Generator: Adobe Illustrator 19.1.0, SVG Export Plug-In . SVG Version: 6.00 Build 0)  -->
<svg version="1.1" id="Layer_1" xmlns="http://www.w3.org/2000/svg" xmlns:xlink="http://www.w3.org/1999/xlink" x="0px" y="0px"
	 viewBox="0 0 560 560" style="enable-background:new 0 0 560 560;" xml:space="preserve">
<path d="M280,0C125.4,0,0,125.3,0,280s125.4,280,280,280s280-125.4,280-280S434.6,0,280,0 M396.6,416.3H280H163.4v-10.6h12.8V143.6
	H280h103.8v262.1h12.8V416.3z"/>
<rect x="197.3" y="337.2" width="29" height="26.6"/>
<rect x="197.3" y="276.1" width="29" height="26.6"/>
<rect x="240.5" y="276.1" width="29" height="26.6"/>
<rect x="197.3" y="219.2" width="29" height="26.6"/>
<rect x="240.5" y="219.2" width="29" height="26.6"/>
<rect x="197.3" y="162.3" width="29" height="26.6"/>
<rect x="240.5" y="162.3" width="29" height="26.6"/>
<polygon points="280,335.8 241.5,335.8 241.5,405.7 280,405.7 318.5,405.7 318.5,335.8 "/>
<rect x="333.7" y="337.2" width="29" height="26.6"/>
<rect x="333.7" y="276.1" width="29" height="26.6"/>
<rect x="290.5" y="276.1" width="29" height="26.6"/>
<rect x="333.7" y="219.2" width="29" height="26.6"/>
<rect x="290.5" y="219.2" width="29" height="26.6"/>
<rect x="333.7" y="162.3" width="29" height="26.6"/>
<rect x="290.5" y="162.3" width="29" height="26.6"/>
</svg>
