<?xml version="1.0" encoding="utf-8"?>
<!-- Generator: Adobe Illustrator 19.1.0, SVG Export Plug-In . SVG Version: 6.00 Build 0)  -->
<svg version="1.1" id="Layer_1" xmlns="http://www.w3.org/2000/svg" xmlns:xlink="http://www.w3.org/1999/xlink" x="0px" y="0px"
	 viewBox="0 0 1024 1024" style="enable-background:new 0 0 1024 1024;" xml:space="preserve">
<path d="M732.2,611.9c209.8,0.8,261.8-57.9,262-98c0.1-40.1-51.5-99.1-261.3-99.9L505.2,86.4c-2.6-3.8-8.5-6.9-13.1-6.9l-88-0.3
	c-11,0-18.1,8.7-15.8,19.5l68.3,312.7c-93,11.5-176.1,31.3-261.6,43.7L103,335c-2.6-3.4-8.3-6.1-12.6-6.1l-42.7-0.2
	c-13.6,0-20.3,10.1-14.8,22.6l70.4,159.5l-71.6,159c-5.6,12.4,1,22.6,14.6,22.7l42.7,0.2c4.3,0,9.9-2.7,12.6-6L194.6,567
	c85.3,13.1,168.4,33.5,261.2,45.6l-70.5,312.2c-2.4,10.7,4.6,19.6,15.6,19.6l88,0.3c4.6,0,10.5-3,13.2-6.8L732.2,611.9z
	 M926.4,513.7c-0.1,27.3-17.8,50-41.4,56c7.8-16.9,12.3-35.9,12.3-56.1c0.1-20.2-4.3-39.2-11.9-56.2
	C908.9,463.5,926.4,486.4,926.4,513.7z"/>
</svg>
