<?xml version="1.0" encoding="utf-8"?>
<!-- Generator: Adobe Illustrator 19.1.0, SVG Export Plug-In . SVG Version: 6.00 Build 0)  -->
<svg version="1.1" id="Layer_1" xmlns="http://www.w3.org/2000/svg" xmlns:xlink="http://www.w3.org/1999/xlink" x="0px" y="0px"
	 viewBox="0 0 1024 1024" style="enable-background:new 0 0 1024 1024;" xml:space="preserve">
<path d="M713.5,328.5c7.8,8.7,13.1,18.6,16.3,28.8c7.8-11.7,6.6-28.2-3.9-40c-10.5-11.8-26.8-14.8-39.3-8.4
	C696.6,313.3,705.8,319.8,713.5,328.5"/>
<path d="M529.9,77.7C292,77.7,99.1,270.6,99.1,508.5S292,939.2,529.9,939.2s430.8-192.9,430.8-430.8S767.8,77.7,529.9,77.7
	 M707.6,662.9c0.3,2.6-1.1,6.2-3,8l-37.9,33.8c-4.7,4.2-11.2,3.2-14.3-2.4l-90.1-161.1c-44.5,30.6-88,53.9-129.6,81.2l6.2,87
	c0.1,2.5-1.2,5.8-3.1,7.4l-18.4,16.4c-5.9,5.2-12.6,3.4-15-4.1l-30.6-95.8l-91.7-41.3c-7.2-3.2-8.2-10.1-2.4-15.4l18.4-16.4
	c1.8-1.6,5.3-2.6,7.8-2.2l85.8,16.1c31.8-38.3,59.9-78.8,95.3-119.6L335.2,346.8c-5.2-3.7-5.5-10.2-0.8-14.4l37.9-33.8
	c2-1.8,5.7-2.7,8.3-2.1l224,52.7c90.3-80.6,135.2-75.2,150.6-57.9c15.4,17.3,15.7,62.5-74.6,143L707.6,662.9z"/>
</svg>
