<?xml version="1.0" encoding="utf-8"?>
<!-- Generator: Adobe Illustrator 19.1.0, SVG Export Plug-In . SVG Version: 6.00 Build 0)  -->
<svg version="1.1" id="Layer_1" xmlns="http://www.w3.org/2000/svg" xmlns:xlink="http://www.w3.org/1999/xlink" x="0px" y="0px"
	 viewBox="0 0 560 560" style="enable-background:new 0 0 560 560;" xml:space="preserve">
<path d="M399.3,163.4c5.1,5.7,8.5,12.1,10.6,18.7c5.1-7.6,4.3-18.3-2.5-26c-6.8-7.7-17.4-9.6-25.6-5.5
	C388.3,153.6,394.3,157.8,399.3,163.4"/>
<path d="M279.9,0.4C125.2,0.4-0.2,125.8-0.2,280.5s125.4,280,280.1,280S560,435.1,560,280.4S434.6,0.4,279.9,0.4 M395.4,380.9
	c0.2,1.7-0.7,4-2,5.2l-24.6,22c-3.1,2.7-7.3,2.1-9.3-1.6L301,301.7c-28.9,19.9-57.2,35-84.3,52.8l4,56.6c0.1,1.6-0.8,3.8-2,4.8
	l-12,10.7c-3.8,3.4-8.2,2.2-9.8-2.7l-19.9-62.3l-59.6-26.9c-4.7-2.1-5.3-6.6-1.6-10l12-10.7c1.2-1,3.4-1.7,5.1-1.4l55.8,10.5
	c20.7-24.9,38.9-51.2,62-77.8l-97.4-70c-3.4-2.4-3.6-6.6-0.5-9.4l24.6-22c1.3-1.2,3.7-1.8,5.4-1.4l145.6,34.3
	c58.7-52.4,87.9-48.9,97.9-37.6c10,11.2,10.2,40.6-48.5,93L395.4,380.9z"/>
</svg>
